<svg width="76" height="77" viewBox="0 0 76 77" fill="none" xmlns="http://www.w3.org/2000/svg">
<g filter="url(#filter0_d_1_473)">
<path d="M38 65C53.4639 65 66 52.4639 66 37C66 21.5361 53.4639 9 38 9C22.5361 9 10 21.5361 10 37C10 52.4639 22.5361 65 38 65Z" fill="#FFB45E"/>
<path d="M35.0032 42.646C35.9438 46.6497 34.8816 50.324 32.6306 50.8528C30.3796 51.3817 27.7922 48.5648 26.8516 44.5612C25.911 40.5575 26.9732 36.8832 29.2242 36.3543C31.4752 35.8255 34.0626 38.6424 35.0032 42.646Z" fill="url(#paint0_angular_1_473)"/>
<path d="M53.6951 34.0939C53.6951 34.0939 53.2989 32.9978 52.5917 31.9748C50.0561 28.315 43.0463 25.4286 41.7845 24.911C40.2973 24.302 38.8039 23.8514 38.8039 23.8514C36.8961 23.2819 35.1529 22.9178 32.9522 22.7309C32.3793 22.6823 30.4653 22.7553 28.6306 23.8088L35.6586 28.2785C34.6862 29.3 34.6786 33.1266 35.9462 36.72C36.7395 39.38 35.3395 40.4533 46.7729 37.5133C49.2514 36.4866 49.3185 34.2096 49.2514 34.5689L53.6951 34.0939Z" fill="url(#paint1_linear_1_473)"/>
<path d="M54.214 36.7065C54.1531 35.5738 53.897 34.6663 53.6959 34.0939L49.2524 34.5689C48.9781 35.9696 45.6803 36.5664 42.7362 37.0962C41.2001 37.3702 40.5183 37.4698 39.4002 37.56C38.4183 37.6392 37.9332 37.6511 37.6772 37.84C37.2597 38.318 37.732 39.2004 37.7199 41.6666C37.7199 42.5313 37.7139 43.3038 37.6772 43.7666C37.5371 45.4108 36.6991 47.2158 37.1136 47.4533C37.3086 47.5629 38.7927 46.7237 39.0244 46.6385C39.9203 46.3096 40.8529 46.0722 41.7733 45.8225C44.2176 45.171 46.6497 44.562 47.4116 44.3671C48.4906 44.1661 49.3683 43.9103 49.9961 43.7032C51.1055 43.3317 51.7637 43.0577 52.3732 42.5522C54.4456 40.8654 54.2628 37.5651 54.214 36.7065Z" fill="url(#paint2_linear_1_473)"/>
<path d="M28.6311 23.8088C25.8637 25.3981 24.9372 28.3698 24.3582 30.2272C23.6633 32.4559 23.6266 34.3863 23.6266 35.9452C23.6266 37.157 23.734 38.8031 23.9533 40.3133C24.0997 41.3363 24.3904 43.6136 25.2133 45.8667C26.1467 48.76 27.92 52.26 31.5386 53.3733C31.8494 53.422 32.4529 53.4952 33.1782 53.2881C35.9822 52.4904 37.7438 48.179 37.8108 42.601C37.8779 41.3405 37.8718 39.8851 37.7194 38.2714C37.6218 37.2666 37.4694 35.6529 36.8965 33.619C36.482 32.1515 35.9943 30.9518 35.5982 30.0871C35.4031 29.466 35.2812 28.7231 35.6591 28.2786L35.3867 27.8533L28.6311 23.8088ZM32.648 50.7914C30.4048 51.3212 27.8142 48.5261 26.8695 44.5375C25.9246 40.5489 26.9731 36.889 29.2162 36.3593C31.4593 35.8295 34.0499 38.6246 34.9947 42.6132C35.9395 46.5958 34.8911 50.2616 32.648 50.7914Z" fill="url(#paint3_radial_1_473)"/>
<path d="M56.9466 65C59.3477 65 61.6505 64.0461 63.3483 62.3483C65.0461 60.6505 66 58.3477 66 55.9466C66 53.5456 65.0461 51.2428 63.3483 49.545C61.6505 47.8471 59.3477 46.8933 56.9466 46.8933C54.5456 46.8933 52.2428 47.8471 50.545 49.545C48.8471 51.2428 47.8933 53.5456 47.8933 55.9466C47.8933 58.3477 48.8471 60.6505 50.545 62.3483C52.2428 64.0461 54.5456 65 56.9466 65Z" fill="url(#paint4_radial_1_473)"/>
<path d="M55.547 55.0862H56.7261C57.2876 55.0862 57.7036 54.9459 57.9741 54.6651C58.2446 54.3844 58.3799 54.0118 58.3799 53.5473C58.3799 53.0982 58.2446 52.7485 57.9741 52.4984C57.7087 52.2483 57.3412 52.1233 56.8716 52.1233C56.4479 52.1233 56.0932 52.2407 55.8074 52.4754C55.5215 52.7051 55.3786 53.0063 55.3786 53.3789H53.1659C53.1659 52.797 53.3216 52.2764 53.633 51.817C53.9494 51.3525 54.3884 50.9901 54.9499 50.7298C55.5164 50.4695 56.1391 50.3394 56.818 50.3394C57.997 50.3394 58.9209 50.6226 59.5895 51.1892C60.2582 51.7507 60.5925 52.5265 60.5925 53.5167C60.5925 54.0271 60.4368 54.4967 60.1255 54.9254C59.8141 55.3542 59.4058 55.6834 58.9005 55.9131C59.5283 56.1377 59.9953 56.4746 60.3016 56.9237C60.6129 57.3729 60.7686 57.9037 60.7686 58.5162C60.7686 59.5064 60.4062 60.3001 59.6814 60.8973C58.9617 61.4945 58.0073 61.7931 56.818 61.7931C55.7053 61.7931 54.7942 61.4996 54.0847 60.9126C53.3803 60.3257 53.0281 59.5498 53.0281 58.5851H55.2408C55.2408 59.0037 55.3965 59.3457 55.7078 59.6111C56.0243 59.8765 56.4122 60.0092 56.8716 60.0092C57.3973 60.0092 57.8082 59.8714 58.1042 59.5958C58.4054 59.315 58.556 58.945 58.556 58.4856C58.556 57.3729 57.9435 56.8165 56.7185 56.8165H55.547V55.0862Z" fill="black"/>
</g>
<defs>
<filter id="filter0_d_1_473" x="0" y="0.5" width="76" height="76" filterUnits="userSpaceOnUse" color-interpolation-filters="sRGB">
<feFlood flood-opacity="0" result="BackgroundImageFix"/>
<feColorMatrix in="SourceAlpha" type="matrix" values="0 0 0 0 0 0 0 0 0 0 0 0 0 0 0 0 0 0 127 0" result="hardAlpha"/>
<feOffset dy="1.5"/>
<feGaussianBlur stdDeviation="5"/>
<feColorMatrix type="matrix" values="0 0 0 0 0.139583 0 0 0 0 0.217167 0 0 0 0 0.416667 0 0 0 0.25 0"/>
<feBlend mode="normal" in2="BackgroundImageFix" result="effect1_dropShadow_1_473"/>
<feBlend mode="normal" in="SourceGraphic" in2="effect1_dropShadow_1_473" result="shape"/>
</filter>
<radialGradient id="paint0_angular_1_473" cx="0" cy="0" r="1" gradientUnits="userSpaceOnUse" gradientTransform="translate(40.4736 41.9) rotate(175.956) scale(13.8946 8.49415)">
<stop stop-color="#E8FE42"/>
<stop offset="0.199738" stop-color="#F35432"/>
<stop offset="0.404167" stop-color="#EBFB41"/>
<stop offset="0.555208" stop-color="#84FFC1"/>
<stop offset="0.701042" stop-color="#5981F2"/>
<stop offset="0.841667" stop-color="#7AD6CE"/>
<stop offset="1" stop-color="#E8FF46"/>
</radialGradient>
<linearGradient id="paint1_linear_1_473" x1="33.9862" y1="24.96" x2="38.5045" y2="41.4823" gradientUnits="userSpaceOnUse">
<stop stop-color="#ED2626"/>
<stop offset="0.259729" stop-color="#FFA84C"/>
<stop offset="0.544792" stop-color="#FFD84C"/>
<stop offset="0.815625" stop-color="#ECFF5A"/>
<stop offset="1" stop-color="#62CDDD"/>
</linearGradient>
<linearGradient id="paint2_linear_1_473" x1="41.0338" y1="36.0666" x2="44.5758" y2="45.2618" gradientUnits="userSpaceOnUse">
<stop stop-color="#FFD84C"/>
<stop offset="0.196022" stop-color="#EAFF44"/>
<stop offset="0.357292" stop-color="#CDF364"/>
<stop offset="0.556721" stop-color="#A2E093"/>
<stop offset="1" stop-color="#5FCEF1"/>
</linearGradient>
<radialGradient id="paint3_radial_1_473" cx="0" cy="0" r="1" gradientUnits="userSpaceOnUse" gradientTransform="translate(30.3467 25.2867) rotate(84.4117) scale(28.2744 11.0113)">
<stop offset="0.1125" stop-color="#ED2626"/>
<stop offset="0.625386" stop-color="#FFC04C"/>
<stop offset="0.779167" stop-color="#E9FF3F"/>
<stop offset="0.904167" stop-color="#71D3D9"/>
<stop offset="1" stop-color="#4C53FF"/>
</radialGradient>
<radialGradient id="paint4_radial_1_473" cx="0" cy="0" r="1" gradientUnits="userSpaceOnUse" gradientTransform="translate(53.8105 51.2277) rotate(54.2) scale(15.0008)">
<stop stop-color="white"/>
<stop offset="1" stop-color="#F7EEEE"/>
</radialGradient>
</defs>
</svg>
