<svg width="20" height="20" viewBox="0 0 20 20" fill="none" xmlns="http://www.w3.org/2000/svg">
<g clip-path="url(#clip0_1_392)">
<path d="M5.81087 11.421C6.37292 11.421 6.91619 11.3847 7.43029 11.3171V5.6822C6.91624 5.61467 6.37292 5.57837 5.81087 5.57837C2.60166 5.57837 7.62939e-05 6.7583 7.62939e-05 8.21388V8.78544C7.62939e-05 10.241 2.60166 11.421 5.81087 11.421Z" fill="currentColor"/>
<path d="M5.81087 14.3632C6.37292 14.3632 6.91619 14.3269 7.43029 14.2594V12.6077C6.91609 12.6752 6.37307 12.7121 5.81087 12.7121C3.00958 12.7121 0.671489 11.8129 0.122287 10.6163C0.0423073 10.7906 7.62939e-05 10.9711 7.62939e-05 11.1561V11.7277C7.62939e-05 13.1833 2.60166 14.3632 5.81087 14.3632Z" fill="currentColor"/>
<path d="M7.43021 15.6786V15.5502C6.91602 15.6178 6.37299 15.6546 5.81079 15.6546C3.0095 15.6546 0.671413 14.7555 0.122211 13.5588C0.042231 13.7331 0 13.9136 0 14.0986V14.6701C0 16.1258 2.60159 17.3057 5.81079 17.3057C6.45257 17.3057 7.06985 17.2584 7.64709 17.1712C7.50401 16.8786 7.43021 16.5699 7.43021 16.2501V15.6786Z" fill="currentColor"/>
<path d="M14.1895 1.11462C10.9803 1.11462 8.37874 2.29455 8.37874 3.75013V4.3217C8.37874 5.77727 10.9803 6.9572 14.1895 6.9572C17.3987 6.9572 20.0003 5.77727 20.0003 4.3217V3.75013C20.0003 2.29455 17.3987 1.11462 14.1895 1.11462Z" fill="currentColor"/>
<path d="M14.1895 8.2483C11.3882 8.2483 9.05015 7.34925 8.50095 6.15259C8.42097 6.32684 8.37874 6.50732 8.37874 6.69238V7.26394C8.37874 8.71952 10.9803 9.89945 14.1895 9.89945C17.3987 9.89945 20.0003 8.71952 20.0003 7.26394V6.69238C20.0003 6.50732 19.9581 6.32684 19.8781 6.15259C19.3289 7.34925 16.9908 8.2483 14.1895 8.2483Z" fill="currentColor"/>
<path d="M14.1895 11.1908C11.3882 11.1908 9.05015 10.2917 8.50095 9.09509C8.42097 9.26935 8.37874 9.44982 8.37874 9.63488V10.2064C8.37874 11.6621 10.9803 12.842 14.1895 12.842C17.3987 12.842 20.0003 11.6621 20.0003 10.2064V9.63488C20.0003 9.44982 19.9581 9.26935 19.8781 9.09509C19.3289 10.2918 16.9908 11.1908 14.1895 11.1908Z" fill="currentColor"/>
<path d="M14.1895 14.292C11.3882 14.292 9.05015 13.3929 8.50095 12.1963C8.42097 12.3706 8.37874 12.551 8.37874 12.736V13.3076C8.37874 14.7632 10.9803 15.9431 14.1895 15.9431C17.3987 15.9431 20.0003 14.7632 20.0003 13.3076V12.736C20.0003 12.551 19.9581 12.3705 19.8781 12.1963C19.3289 13.3929 16.9908 14.292 14.1895 14.292Z" fill="currentColor"/>
<path d="M14.1895 17.2344C11.3882 17.2344 9.05015 16.3353 8.50095 15.1387C8.42097 15.313 8.37874 15.4936 8.37874 15.6785V16.25C8.37874 17.7056 10.9803 18.8855 14.1895 18.8855C17.3987 18.8855 20.0003 17.7056 20.0003 16.25V15.6784C20.0003 15.4934 19.9581 15.3129 19.8781 15.1387C19.3289 16.3353 16.9908 17.2344 14.1895 17.2344Z" fill="currentColor"/>
</g>
<defs>
<clipPath id="clip0_1_392">
<rect width="20" height="20" fill="white"/>
</clipPath>
</defs>
</svg>
