<svg width="27" height="27" viewBox="0 0 27 27" fill="none" xmlns="http://www.w3.org/2000/svg">
<path d="M24.3947 2H2.60528C2.27101 2 2 2.27101 2 2.60528V21.9736C2 22.3079 2.27101 22.5789 2.60528 22.5789H3.81578V24.3947C3.81578 24.7289 4.08679 24.9999 4.42106 24.9999H8.05262C8.3869 24.9999 8.6579 24.7289 8.6579 24.3947V22.5789H18.342V24.3947C18.342 24.7289 18.613 24.9999 18.9473 24.9999H22.5789C22.9131 24.9999 23.1842 24.7289 23.1842 24.3947V22.5789H24.3947C24.7289 22.5789 24.9999 22.3079 24.9999 21.9736V2.60528C24.9999 2.27101 24.7289 2 24.3947 2V2ZM4.42106 5.02628C4.42106 4.69201 4.69207 4.421 5.02634 4.421H21.9736C22.3079 4.421 22.5789 4.69201 22.5789 5.02628V19.5525C22.5789 19.8868 22.3079 20.1578 21.9736 20.1578H5.02628C4.69201 20.1578 4.421 19.8868 4.421 19.5525V5.02628H4.42106Z" fill="currentColor"/>
<path d="M5.63205 5.63135V18.9471H21.3688V5.63135H5.63205ZM15.3162 11.684C15.6505 11.684 15.9215 11.955 15.9215 12.2892V14.7103C15.9215 15.0445 15.6505 15.3155 15.3162 15.3155H14.1057V15.9208C14.1057 16.2551 13.8347 16.5261 13.5005 16.5261C13.1662 16.5261 12.8952 16.255 12.8952 15.9208V15.3155H11.6847C11.3504 15.3155 11.0794 15.0445 11.0794 14.7102C11.0794 14.3759 11.3504 14.1049 11.6847 14.1049H14.711V12.8945H11.6847C11.3504 12.8945 11.0794 12.6235 11.0794 12.2892V9.86813C11.0794 9.53386 11.3504 9.26285 11.6847 9.26285H12.8952V8.65757C12.8952 8.3233 13.1662 8.05229 13.5005 8.05229C13.8347 8.05229 14.1057 8.3233 14.1057 8.65757V9.26291H15.3162C15.6505 9.26291 15.9215 9.53392 15.9215 9.86819C15.9215 10.2025 15.6505 10.4735 15.3162 10.4735H12.29V11.684H15.3162Z" fill="currentColor"/>
</svg>
